# xmcd
#
# Track frame offsets:
#	180
#	14141
#	25301
#	37064
#	48154
#	59929
#	72410
#	84206
#	97727
#	108058
#	120039
#	135237
#
# Disc length: 1993 seconds
#
# Revision: 0
# Processed by: cddbd v1.5.2PL0 Copyright (c) Steve Scherf et al.
# Submitted via: dBpowerAMP V4.0
#
DISCID=9307c70c
DTITLE=Conway Twitty - Hello Darlin'
DYEAR=2005
DGENRE=Country
TTITLE0=Fifteen Years Age
TTITLE1=Hello Darlin'
TTITLE2=I Can't See Me Without You
TTITLE3=It's Only Make Believe
TTITLE4=I'm Not Through Loving You
TTITLE5=This Time I've Hurt Her More Than She Loves Me
TTITLE6=Linda On My Mind
TTITLE7=The Games That Daddies Play
TTITLE8=(I Can't Believe) She Gives It All To Me
TTITLE9=She Needs Someone To Hold Her (When She Cries)
TTITLE10=Touch The Hand
TTITLE11=You're Never Been This Far Before
EXTD=
EXTT0=
EXTT1=
EXTT2=
EXTT3=
EXTT4=
EXTT5=
EXTT6=
EXTT7=
EXTT8=
EXTT9=
EXTT10=
EXTT11=
PLAYORDER=
